<svg width="500" height="500" viewBox="0 0 500 500" fill="none" xmlns="http://www.w3.org/2000/svg">
<rect width="500" height="500" fill="#23252E"/>
<path d="M116 164C128 139.5 134 96.3333 135 76C138 84.5 138 90.5 141.5 111.5C145.417 135 140.696 156.5 141.5 175C142 186.5 150 197.5 158.5 203.5C171.5 212.676 199 212.056 215 204.5C233 196 245 194.5 251 194.5C257 194.5 268.996 196.298 284 203.5C309 215.5 341.5 213 356.5 183C360.75 174.5 360.5 160 356.5 135C352.947 112.793 361.667 85.6667 365.5 75C364.167 80.6667 361 110 376 149.5C391 189 398.333 223.667 396.5 239C394.5 227.4 386.333 218.167 382.5 215C404.5 274.5 367 319.5 367.5 314C367.9 309.6 365.333 301.833 364 298.5C360 336 320 358 304 375.5C291.2 389.5 292.333 413.667 294.5 424C233.7 425.6 202.833 392.333 195 375.5C196.344 384.368 197.311 388.016 197.903 389.202C198.101 389.302 198.3 389.401 198.5 389.5C198.391 389.773 198.191 389.781 197.903 389.202C149.165 364.724 132.658 318.585 130.5 298.5C126.9 306.1 127.333 312 128 314C101.6 284 110 235.833 117.5 215.5C110.7 219.5 105 232.5 103 238.5C103 219 106.874 182.631 116 164Z" fill="#F9215D"/>
<path d="M250.005 170.818V149.561C269.33 134.101 285.54 148.97 305.08 158.74C320.54 166.47 331.652 167.436 338.415 163.088C344.524 159.162 343.086 144.408 341.314 137C344.213 139.416 347.112 144.73 349.527 156.808C351.431 166.33 349.527 173.234 347.112 178.548C346.145 181.608 339.684 190.765 319.574 194.974C298.8 199.322 263.532 182.413 250.005 170.818Z" fill="#F9215D"/>
<path d="M250.298 171.301V150.044C230.974 134.584 214.764 149.453 195.223 159.223C179.763 166.953 168.652 167.919 161.888 163.571C155.78 159.645 157.218 144.891 158.989 137.483C156.091 139.899 153.192 145.213 150.776 157.291C148.872 166.813 150.776 173.717 153.192 179.031C154.158 182.091 160.619 191.248 180.73 195.457C201.504 199.805 236.771 182.896 250.298 171.301Z" fill="#F9215D"/>
</svg>
